<?xml version="1.0" encoding="UTF-8"?>
<svg xmlns="http://www.w3.org/2000/svg" xmlns:xlink="http://www.w3.org/1999/xlink" viewBox="0 0 256 256" width="256px" height="256px">
<defs>
<linearGradient id="linear0" gradientUnits="userSpaceOnUse" x1="51.0625" y1="66.805878" x2="51.0625" y2="131.797684" gradientTransform="matrix(1.488372,0,0,1.488372,0,0)">
<stop offset="0" style="stop-color:rgb(54.11765%,70.588237%,100%);stop-opacity:1;"/>
<stop offset="1" style="stop-color:rgb(89.411765%,57.254905%,100%);stop-opacity:1;"/>
</linearGradient>
<linearGradient id="linear1" gradientUnits="userSpaceOnUse" x1="52.08913" y1="41.44931" x2="52.08913" y2="62.728939" gradientTransform="matrix(1.488372,0,0,1.488372,0,0)">
<stop offset="0" style="stop-color:rgb(54.11765%,70.588237%,100%);stop-opacity:1;"/>
<stop offset="1" style="stop-color:rgb(89.411765%,57.254905%,100%);stop-opacity:1;"/>
</linearGradient>
<linearGradient id="linear2" gradientUnits="userSpaceOnUse" x1="100.474876" y1="37.960941" x2="100.474876" y2="133.098434" gradientTransform="matrix(1.488372,0,0,1.488372,0,0)">
<stop offset="0" style="stop-color:rgb(54.11765%,70.588237%,100%);stop-opacity:1;"/>
<stop offset="1" style="stop-color:rgb(89.411765%,57.254905%,100%);stop-opacity:1;"/>
</linearGradient>
<linearGradient id="linear3" gradientUnits="userSpaceOnUse" x1="86" y1="17.46875" x2="86" y2="154.53125" gradientTransform="matrix(1.488372,0,0,1.488372,0,0)">
<stop offset="0" style="stop-color:rgb(10.196079%,42.745098%,100%);stop-opacity:1;"/>
<stop offset="1" style="stop-color:rgb(78.431374%,13.333334%,100%);stop-opacity:1;"/>
</linearGradient>
</defs>
<g id="surface231098">
<path style=" stroke:none;fill-rule:evenodd;fill:url(#linear0);" d="M 88 192 L 88 104 L 64 104 L 64 192 Z M 88 192 "/>
<path style=" stroke:none;fill-rule:evenodd;fill:url(#linear1);" d="M 77.433594 92 C 87.480469 92 93.734375 86.105469 93.734375 77.785156 C 93.546875 69.28125 87.480469 63.1875 77.625 63.1875 C 67.765625 63.1875 61.320312 69.089844 61.320312 77.59375 C 61.320312 85.910156 67.570312 92 77.242188 92 Z M 77.433594 92 "/>
<path style=" stroke:none;fill-rule:evenodd;fill:url(#linear2);" d="M 107.785156 192 L 136 192 L 136 143.644531 C 136 141.050781 136.488281 138.464844 137.253906 136.613281 C 139.332031 131.433594 144.761719 126.070312 152.71875 126.070312 C 163.148438 126.070312 168.003906 134.023438 168.003906 145.675781 L 168.003906 192 L 192.003906 192 L 192.003906 142.351562 C 192.003906 115.722656 179.664062 104.359375 160.699219 104.359375 C 145.15625 104.359375 140.203125 112 136.410156 120 L 136 120 L 136 104 L 107.785156 104 C 108.164062 112 107.085938 192 107.085938 192 Z M 107.785156 192 "/>
<path style=" stroke:none;fill-rule:nonzero;fill:url(#linear3);" d="M 200 228 L 56 228 C 40.5625 228 28 215.4375 28 200 L 28 56 C 28 40.5625 40.5625 28 56 28 L 200 28 C 215.4375 28 228 40.5625 228 56 L 228 200 C 228 215.4375 215.4375 228 200 228 Z M 56 36 C 44.972656 36 36 44.972656 36 56 L 36 200 C 36 211.027344 44.972656 220 56 220 L 200 220 C 211.027344 220 220 211.027344 220 200 L 220 56 C 220 44.972656 211.027344 36 200 36 Z M 56 36 "/>
</g>
</svg>
