<?xml version="1.0" encoding="UTF-8"?>
<svg xmlns="http://www.w3.org/2000/svg" xmlns:xlink="http://www.w3.org/1999/xlink" viewBox="0 0 256 256" width="256px" height="256px">
<defs>
<linearGradient id="linear0" gradientUnits="userSpaceOnUse" x1="86" y1="147.8125" x2="86" y2="24.1875" gradientTransform="matrix(1.488372,0,0,1.488372,0,0)">
<stop offset="0" style="stop-color:rgb(10.196079%,42.745098%,100%);stop-opacity:1;"/>
<stop offset="1" style="stop-color:rgb(78.431374%,13.333334%,100%);stop-opacity:1;"/>
</linearGradient>
<linearGradient id="linear1" gradientUnits="userSpaceOnUse" x1="86" y1="81.992943" x2="86" y2="61.8125" gradientTransform="matrix(1.488372,0,0,1.488372,0,0)">
<stop offset="0" style="stop-color:rgb(54.11765%,70.588237%,100%);stop-opacity:1;"/>
<stop offset="1" style="stop-color:rgb(89.411765%,57.254905%,100%);stop-opacity:1;"/>
</linearGradient>
</defs>
<g id="surface33684">
<path style=" stroke:none;fill-rule:nonzero;fill:url(#linear0);" d="M 200 36 L 56 36 C 44.800781 36 36 44.800781 36 56 L 36 200 C 36 211.199219 44.800781 220 56 220 L 200 220 C 211.199219 220 220 211.199219 220 200 L 220 56 C 220 44.800781 211.199219 36 200 36 Z M 212 200 C 212 206.800781 206.800781 212 200 212 L 56 212 C 49.199219 212 44 206.800781 44 200 L 44 56 C 44 49.199219 49.199219 44 56 44 L 200 44 C 206.800781 44 212 49.199219 212 56 Z M 180 76 L 76 76 C 69.382812 76 64 81.382812 64 88 L 64 168 C 64 174.617188 69.382812 180 76 180 L 180 180 C 186.617188 180 192 174.617188 192 168 L 192 88 C 192 81.382812 186.617188 76 180 76 Z M 179.480469 84 L 133.660156 129.820312 C 130.945312 132.539062 126.199219 132.542969 123.476562 129.820312 L 77.65625 84 Z M 72 166.34375 L 72 89.65625 L 110.34375 128 Z M 77.65625 172 L 116 133.65625 L 117.820312 135.476562 C 120.6875 138.347656 124.507812 139.929688 128.566406 139.929688 C 132.632812 139.929688 136.449219 138.347656 139.320312 135.476562 L 140.613281 134.183594 L 179.378906 172 Z M 184 165.332031 L 146.269531 128.527344 L 184 90.792969 Z M 108 164 L 148 164 L 148 156 L 108 156 Z M 108 164 "/>
<path style=" stroke:none;fill-rule:nonzero;fill:url(#linear1);" d="M 102.765625 92 L 153.234375 92 C 155.375 92 156.445312 94.585938 154.933594 96.097656 L 129.695312 121.332031 C 128.761719 122.269531 127.238281 122.269531 126.300781 121.332031 L 101.0625 96.097656 C 99.554688 94.585938 100.625 92 102.765625 92 Z M 102.765625 92 "/>
</g>
</svg>
