<?xml version="1.0" encoding="UTF-8"?>
<svg xmlns="http://www.w3.org/2000/svg" xmlns:xlink="http://www.w3.org/1999/xlink" viewBox="0 0 240 240" width="240px" height="240px">
<defs>
<linearGradient id="linear0" gradientUnits="userSpaceOnUse" x1="43.2365" y1="0.2365" x2="125.026077" y2="82.026077" gradientTransform="matrix(1.395349,0,0,1.395349,0,0)">
<stop offset="0.237" style="stop-color:rgb(72.941178%,56.470591%,96.078432%);stop-opacity:1;"/>
<stop offset="0.85" style="stop-color:rgb(60.784316%,34.901962%,71.372551%);stop-opacity:1;"/>
</linearGradient>
<linearGradient id="linear1" gradientUnits="userSpaceOnUse" x1="43.2365" y1="43.2365" x2="125.026077" y2="125.026077" gradientTransform="matrix(1.395349,0,0,1.395349,0,0)">
<stop offset="0.237" style="stop-color:rgb(72.941178%,56.470591%,96.078432%);stop-opacity:1;"/>
<stop offset="0.85" style="stop-color:rgb(60.784316%,34.901962%,71.372551%);stop-opacity:1;"/>
</linearGradient>
<linearGradient id="linear2" gradientUnits="userSpaceOnUse" x1="43.2365" y1="86.236504" x2="125.026077" y2="168.026077" gradientTransform="matrix(1.395349,0,0,1.395349,0,0)">
<stop offset="0.237" style="stop-color:rgb(72.941178%,56.470591%,96.078432%);stop-opacity:1;"/>
<stop offset="0.85" style="stop-color:rgb(60.784316%,34.901962%,71.372551%);stop-opacity:1;"/>
</linearGradient>
</defs>
<g id="surface5615322">
<path style=" stroke:none;fill-rule:nonzero;fill:url(#linear0);" d="M 215 75 L 25 75 C 19.5 75 15 70.5 15 65 L 15 55 C 15 49.5 19.5 45 25 45 L 215 45 C 220.5 45 225 49.5 225 55 L 225 65 C 225 70.5 220.5 75 215 75 Z M 215 75 "/>
<path style=" stroke:none;fill-rule:nonzero;fill:url(#linear1);" d="M 215 135 L 25 135 C 19.5 135 15 130.5 15 125 L 15 115 C 15 109.5 19.5 105 25 105 L 215 105 C 220.5 105 225 109.5 225 115 L 225 125 C 225 130.5 220.5 135 215 135 Z M 215 135 "/>
<path style=" stroke:none;fill-rule:nonzero;fill:url(#linear2);" d="M 215 195 L 25 195 C 19.5 195 15 190.5 15 185 L 15 175 C 15 169.5 19.5 165 25 165 L 215 165 C 220.5 165 225 169.5 225 175 L 225 185 C 225 190.5 220.5 195 215 195 Z M 215 195 "/>
</g>
</svg>
